<?xml version="1.0" encoding="UTF-8"?>
<svg width="16px" height="16px" viewBox="0 0 16 16" version="1.1" xmlns="http://www.w3.org/2000/svg" xmlns:xlink="http://www.w3.org/1999/xlink">
    <!-- Generator: Sketch 52.4 (67378) - http://www.bohemiancoding.com/sketch -->
    <title>icon/chat</title>
    <desc>Created with Sketch.</desc>
    <defs>
        <path d="M5.37143249,4 C4.61161318,4 4,4.59462222 4,5.33333333 L4,14.2222222 C4,14.9609333 4.61161318,15.5555556 5.37143249,15.5555556 L7.42858122,15.5555556 L6.96430561,20 L11.542833,15.5555556 L18.6285675,15.5555556 C19.3883868,15.5555556 20,14.9609333 20,14.2222222 L20,5.33333333 C20,4.59462222 19.3883868,4 18.6285675,4 L5.37143249,4 Z M6.97143706,6.44444444 L17.0286087,6.44444444 C17.2812951,6.44444444 17.4857528,6.64322889 17.4857528,6.88888889 C17.4857528,7.13454889 17.2812882,7.33333333 17.0286087,7.33333333 L6.97143706,7.33333333 C6.71875063,7.33333333 6.5142929,7.13454889 6.5142929,6.88888889 C6.5142929,6.64322889 6.71875748,6.44444444 6.97143706,6.44444444 Z M6.97143706,9.33333333 L17.0286087,9.33333333 C17.2812951,9.33333333 17.4857528,9.53211778 17.4857528,9.77777778 C17.4857528,10.0234378 17.2812882,10.2222222 17.0286087,10.2222222 L6.97143706,10.2222222 C6.71875063,10.2222222 6.5142929,10.0234378 6.5142929,9.77777778 C6.5142929,9.53211778 6.71875748,9.33333333 6.97143706,9.33333333 Z M6.97143706,12.2222222 L17.0286087,12.2222222 C17.2812951,12.2222222 17.4857528,12.4210067 17.4857528,12.6666667 C17.4857528,12.9123267 17.2812882,13.1111111 17.0286087,13.1111111 L6.97143706,13.1111111 C6.71875063,13.1111111 6.5142929,12.9123267 6.5142929,12.6666667 C6.5142929,12.4210067 6.71875748,12.2222222 6.97143706,12.2222222 Z" id="path-1"></path>
    </defs>
    <g id="UI-DESK" stroke="none" stroke-width="1" fill="none" fill-rule="evenodd">
        <g id="HP" transform="translate(-447.000000, -2287.000000)">
            <g id="Témoignages" transform="translate(0.000000, 1974.000000)">
                <g id="Content" transform="translate(253.000000, 155.000000)">
                    <g transform="translate(71.000000, 0.000000)" id="Avatar">
                        <g transform="translate(0.000000, 34.000000)">
                            <g id="Badge" transform="translate(110.000000, 110.000000)">
                                <g id="icon/chat" transform="translate(9.000000, 10.000000)">
                                    <mask id="mask-2" fill="white">
                                        <use xlink:href="#path-1"></use>
                                    </mask>
                                    <use id="Mask" fill="#FFFFFF" fill-rule="nonzero" xlink:href="#path-1"></use>
                                </g>
                            </g>
                        </g>
                    </g>
                </g>
            </g>
        </g>
    </g>
</svg>