<?xml version="1.0" encoding="UTF-8"?>
<svg width="121px" height="30px" viewBox="0 0 121 30" version="1.1" xmlns="http://www.w3.org/2000/svg" xmlns:xlink="http://www.w3.org/1999/xlink">
    <defs>
        <path fill="#ffffff" d="M14.5348992,23.48 C17.6015812,23.48 20.1082228,22.2666788 22.0548992,19.84 C22.1824068,19.676305 22.2757402,19.5735616 22.3348992,19.5317698 C22.3517471,20.2012677 22.3344417,27.1718459 22.3348992,27.1696775 C20.0474453,28.6259703 17.584256,29.32 14.8348992,29.32 C10.528211,29.32 6.98157975,27.9600136 4.19489915,25.24 C1.40821855,22.5199864 0.0148991504,19.0866874 0.0148991504,14.94 C0.0148991504,10.7933126 1.43488495,7.3333472 4.27489915,4.56 C7.11491335,1.7866528 10.588212,0.4 14.6948992,0.4 C17.5534426,0.4 20.1219491,1.07841678 22.4004465,2.43526303 C22.3848345,2.41447963 22.3629854,4.94939195 22.3348992,10.04 C20.361556,7.5866544 17.9082472,6.36 14.9748992,6.36 C12.6282208,6.36 10.6215742,7.126659 8.95489915,8.66 C7.28822415,10.193341 6.45489915,12.259987 6.45489915,14.86 C6.45489915,17.460013 7.24155795,19.5466588 8.81489915,21.12 C10.3882404,22.6933412 12.294888,23.48 14.5348992,23.48 Z M111.534899,23.48 C114.601581,23.48 117.108223,22.2666788 119.054899,19.84 C119.182407,19.676305 119.27574,19.5735616 119.334899,19.5317698 C119.351747,20.2012677 119.334442,27.1718459 119.334899,27.1696775 C117.047445,28.6259703 114.584256,29.32 111.834899,29.32 C107.528211,29.32 103.98158,27.9600136 101.194899,25.24 C98.4082186,22.5199864 97.0148992,19.0866874 97.0148992,14.94 C97.0148992,10.7933126 98.434885,7.3333472 101.274899,4.56 C104.114913,1.7866528 107.588212,0.4 111.694899,0.4 C114.553443,0.4 117.121949,1.07841678 119.400447,2.43526303 C119.384835,2.41447963 119.362985,4.94939195 119.334899,10.04 C117.361556,7.5866544 114.908247,6.36 111.974899,6.36 C109.628221,6.36 107.621574,7.126659 105.954899,8.66 C104.288224,10.193341 103.454899,12.259987 103.454899,14.86 C103.454899,17.460013 104.241558,19.5466588 105.814899,21.12 C107.38824,22.6933412 109.294888,23.48 111.534899,23.48 Z M44.18,1.04 L50.42,1.04 L50.42,29 L44.18,29 L30.86,11.48 L30.86,29 L24.62,29 L24.62,1.04 L30.46,1.04 L44.18,19.04 L44.18,1.04 Z M76.3519287,28.92 L76.3519287,28.9221802 L52.8,28.9221802 L52.8,1.04 L72.96,1.04 L72.96,6.6 L59.04,6.6 L59.04,12.36 L71.56,12.36 L71.56,17.68 L59.04,17.68 L59.04,23.48 L76.0548992,23.48 L84.3348992,1.4 L89.4948992,1.4 L99.8148992,28.92 L94.1423164,28.92 L91.9211243,22.9750501 L81.908674,22.9750501 L79.6874819,28.92 L76.3519287,28.92 Z M87.0225595,9.27410587 L84.0148992,17.2663233 L89.9960418,17.2663233 L87.0225595,9.27410587 Z" id="path"></path>
    </defs>
    <g id="brand-logo">
        <mask id="mask">
            <use xlink:href="#path"></use>
        </mask>
        <use id="useMask" xlink:href="#path"></use>
    </g>
</svg>
